<?xml version="1.0" encoding="UTF-8"?>
<svg version="1.1" xmlns="http://www.w3.org/2000/svg" width="256" height="256">
<path d="M0 0 C0.96164063 0.45890625 1.92328125 0.9178125 2.9140625 1.390625 C18.02551856 9.12964562 26.55300888 21.32298711 32.125 37.20703125 C33.20100833 41.87133522 33.2191934 46.17348764 33.125 50.9375 C33.11597656 51.81212891 33.10695312 52.68675781 33.09765625 53.58789062 C33.0742957 55.72538064 33.03843247 57.86272786 33 60 C33.93005859 59.91298828 33.93005859 59.91298828 34.87890625 59.82421875 C47.77309932 59.16730935 59.12645809 63.89510995 69 72 C70.48113281 73.16402344 70.48113281 73.16402344 71.9921875 74.3515625 C81.60331603 82.42752739 88.02350382 95.22775093 89.26171875 107.61914062 C89.94519451 118.51678198 89.85941953 129.01119319 85 139 C84.54109375 139.96164063 84.0821875 140.92328125 83.609375 141.9140625 C75.95360839 156.86295414 63.70199222 165.88234139 47.77249432 171.04627419 C43.9941761 172.00147234 40.82463407 172.25658599 36.93696594 172.26742554 C36.26158207 172.27195665 35.58619819 172.27648776 34.89034814 172.28115618 C32.64598445 172.29373228 30.40186554 172.29218425 28.1574707 172.29052734 C26.54045808 172.29651696 24.92344831 172.30332351 23.30644226 172.31088257 C18.92601008 172.32850844 14.54565611 172.33323658 10.16519189 172.33451414 C7.42375587 172.33593855 4.68233955 172.34021371 1.94090843 172.34550858 C-7.6366565 172.36399954 -17.21416586 172.3721806 -26.79174805 172.37060547 C-35.69687643 172.36940523 -44.60176199 172.39048685 -53.50682896 172.4220928 C-61.16995077 172.44831429 -68.83299357 172.45897027 -76.49615985 172.45769465 C-81.06508448 172.45718662 -85.63379332 172.46278099 -90.20267296 172.48405075 C-94.50462389 172.50353172 -98.80615544 172.50349087 -103.10812187 172.48901749 C-104.6785621 172.48694025 -106.24902926 172.49156486 -107.81942368 172.5037384 C-123.46917753 172.61710344 -138.49950021 168.6942552 -150.31640625 157.8125 C-163.1594541 143.98610974 -167.74353796 129.08826604 -167.375 110.609375 C-166.81691698 98.78598758 -162.43412178 89.18434625 -155 80 C-154.236875 78.948125 -153.47375 77.89625 -152.6875 76.8125 C-146.10607366 69.9249608 -137.8697519 65.34155584 -129 62 C-128.34 62 -127.68 62 -127 62 C-127.04640625 61.33355469 -127.0928125 60.66710937 -127.140625 59.98046875 C-127.55228739 49.46837545 -124.77566196 41.14046186 -117.97265625 33.06640625 C-110.58388388 25.32648431 -102.43430582 20.18924391 -91.54296875 19.7265625 C-85.66886112 19.62527445 -79.95247003 19.59190176 -74.1875 20.796875 C-73.135625 20.86390625 -72.08375 20.9309375 -71 21 C-68.80942295 19.22779404 -68.80942295 19.22779404 -67.25 16.5625 C-52.79691825 -3.32093039 -22.16613546 -10.78352536 0 0 Z " fill="#2096F3" transform="translate(167,44)"/>
</svg>
